<svg width="24" height="24" viewBox="0 0 24 24" fill="none" xmlns="http://www.w3.org/2000/svg">
<path d="M14.4617 18.75L15.4617 9.75M4.99857 7.22221L19.0142 7.25M4.99857 7.22221L6.76889 19.5328C6.90964 20.5181 7.75349 21.25 8.74879 21.25H15.2796C16.2749 21.25 17.1187 20.5181 17.2595 19.5328L19.0142 7.25M4.99857 7.22221C4.6612 7.22221 4.31374 6.83026 4.52726 6.56905L5.41402 5.48423C5.79387 5.01954 6.36232 4.75 6.96251 4.75H8.51419M19.0142 7.25C19.3497 7.25 19.6827 6.83411 19.473 6.57222L18.6147 5.50007C18.2351 5.02596 17.6607 4.75 17.0534 4.75H15.5142M9.51419 18.75L8.51419 9.75M11.9617 18.75L12.0142 9.75M8.51419 4.75L9.4142 3.55C9.7919 3.04639 10.3847 2.75 11.0142 2.75H13.0142C13.6437 2.75 14.2365 3.04639 14.6142 3.55L15.5142 4.75M8.51419 4.75H15.5142" stroke="white" stroke-width="1.5" stroke-linecap="round" stroke-linejoin="round"/>
</svg>
