<svg width="24" height="24" viewBox="0 0 24 24" fill="none" xmlns="http://www.w3.org/2000/svg">
<path d="M4.00467 19.0811L3.01472 21.4853L5.41888 20.4953L4.00467 19.0811Z" fill="white"/>
<path d="M5.45333 15.5111L14.1562 6.80828M5.45333 15.5111L8.98886 19.0467M5.45333 15.5111L4.00467 19.0811M8.98886 19.0467L17.6917 10.3438M8.98886 19.0467L5.41888 20.4953M15.8968 5.06771L16.8033 4.16117C17.5843 3.38012 18.8507 3.38012 19.6317 4.16117L20.3388 4.86827C21.1199 5.64932 21.1199 6.91565 20.3388 7.6967L19.4323 8.60325M15.8968 5.06771L19.4323 8.60325M15.8968 5.06771L14.1562 6.80828M19.4323 8.60325L17.6917 10.3438M14.1562 6.80828L17.6917 10.3438M4.00467 19.0811L3.01472 21.4853L5.41888 20.4953M4.00467 19.0811L5.41888 20.4953" stroke="white" stroke-width="1.5" stroke-linecap="round" stroke-linejoin="round"/>
</svg>
